G04 #@! TF.GenerationSoftware,KiCad,Pcbnew,6.0.11+dfsg-1*
G04 #@! TF.CreationDate,2024-12-21T17:09:36+02:00*
G04 #@! TF.ProjectId,lora_tracker,6c6f7261-5f74-4726-9163-6b65722e6b69,rev?*
G04 #@! TF.SameCoordinates,Original*
G04 #@! TF.FileFunction,Legend,Bot*
G04 #@! TF.FilePolarity,Positive*
%FSLAX46Y46*%
G04 Gerber Fmt 4.6, Leading zero omitted, Abs format (unit mm)*
G04 Created by KiCad (PCBNEW 6.0.11+dfsg-1) date 2024-12-21 17:09:36*
%MOMM*%
%LPD*%
G01*
G04 APERTURE LIST*
%ADD10C,0.150000*%
%ADD11C,0.300000*%
%ADD12C,0.200000*%
%ADD13C,0.120000*%
G04 APERTURE END LIST*
D10*
X105069798Y-116205000D02*
G75*
G03*
X105069798Y-116205000I-11089798J0D01*
G01*
D11*
X99631428Y-122662142D02*
X98488571Y-122662142D01*
X99060000Y-123233571D02*
X99060000Y-122090714D01*
X93916428Y-122662142D02*
X92773571Y-122662142D01*
D12*
X100765714Y-111438571D02*
X100765714Y-112438571D01*
X101122857Y-110867142D02*
X101480000Y-111938571D01*
X100551428Y-111938571D01*
X99980000Y-111867142D02*
X98837142Y-111867142D01*
X97908571Y-111581428D02*
X98051428Y-111510000D01*
X98122857Y-111438571D01*
X98194285Y-111295714D01*
X98194285Y-111224285D01*
X98122857Y-111081428D01*
X98051428Y-111010000D01*
X97908571Y-110938571D01*
X97622857Y-110938571D01*
X97480000Y-111010000D01*
X97408571Y-111081428D01*
X97337142Y-111224285D01*
X97337142Y-111295714D01*
X97408571Y-111438571D01*
X97480000Y-111510000D01*
X97622857Y-111581428D01*
X97908571Y-111581428D01*
X98051428Y-111652857D01*
X98122857Y-111724285D01*
X98194285Y-111867142D01*
X98194285Y-112152857D01*
X98122857Y-112295714D01*
X98051428Y-112367142D01*
X97908571Y-112438571D01*
X97622857Y-112438571D01*
X97480000Y-112367142D01*
X97408571Y-112295714D01*
X97337142Y-112152857D01*
X97337142Y-111867142D01*
X97408571Y-111724285D01*
X97480000Y-111652857D01*
X97622857Y-111581428D01*
X95337142Y-112438571D02*
X95480000Y-112367142D01*
X95551428Y-112295714D01*
X95622857Y-112152857D01*
X95622857Y-111724285D01*
X95551428Y-111581428D01*
X95480000Y-111510000D01*
X95337142Y-111438571D01*
X95122857Y-111438571D01*
X94980000Y-111510000D01*
X94908571Y-111581428D01*
X94837142Y-111724285D01*
X94837142Y-112152857D01*
X94908571Y-112295714D01*
X94980000Y-112367142D01*
X95122857Y-112438571D01*
X95337142Y-112438571D01*
X94194285Y-112438571D02*
X94194285Y-110938571D01*
X93551428Y-112438571D02*
X93551428Y-111652857D01*
X93622857Y-111510000D01*
X93765714Y-111438571D01*
X93980000Y-111438571D01*
X94122857Y-111510000D01*
X94194285Y-111581428D01*
X92837142Y-112438571D02*
X92837142Y-111438571D01*
X92837142Y-111581428D02*
X92765714Y-111510000D01*
X92622857Y-111438571D01*
X92408571Y-111438571D01*
X92265714Y-111510000D01*
X92194285Y-111652857D01*
X92194285Y-112438571D01*
X92194285Y-111652857D02*
X92122857Y-111510000D01*
X91980000Y-111438571D01*
X91765714Y-111438571D01*
X91622857Y-111510000D01*
X91551428Y-111652857D01*
X91551428Y-112438571D01*
X90765714Y-112367142D02*
X90765714Y-112438571D01*
X90837142Y-112581428D01*
X90908571Y-112652857D01*
X89122857Y-110938571D02*
X88194285Y-110938571D01*
X88694285Y-111510000D01*
X88480000Y-111510000D01*
X88337142Y-111581428D01*
X88265714Y-111652857D01*
X88194285Y-111795714D01*
X88194285Y-112152857D01*
X88265714Y-112295714D01*
X88337142Y-112367142D01*
X88480000Y-112438571D01*
X88908571Y-112438571D01*
X89051428Y-112367142D01*
X89122857Y-112295714D01*
X87694285Y-110938571D02*
X87337142Y-112438571D01*
X87051428Y-111367142D01*
X86765714Y-112438571D01*
X86408571Y-110938571D01*
D10*
X112728333Y-73112380D02*
X112728333Y-73826666D01*
X112775952Y-73969523D01*
X112871190Y-74064761D01*
X113014047Y-74112380D01*
X113109285Y-74112380D01*
X112347380Y-73112380D02*
X111680714Y-73112380D01*
X112109285Y-74112380D01*
X75263333Y-53049380D02*
X75263333Y-53763666D01*
X75310952Y-53906523D01*
X75406190Y-54001761D01*
X75549047Y-54049380D01*
X75644285Y-54049380D01*
X74310952Y-53049380D02*
X74787142Y-53049380D01*
X74834761Y-53525571D01*
X74787142Y-53477952D01*
X74691904Y-53430333D01*
X74453809Y-53430333D01*
X74358571Y-53477952D01*
X74310952Y-53525571D01*
X74263333Y-53620809D01*
X74263333Y-53858904D01*
X74310952Y-53954142D01*
X74358571Y-54001761D01*
X74453809Y-54049380D01*
X74691904Y-54049380D01*
X74787142Y-54001761D01*
X74834761Y-53954142D01*
X99417142Y-133329600D02*
X99464761Y-133281981D01*
X99512380Y-133139124D01*
X99512380Y-133043886D01*
X99464761Y-132901028D01*
X99369523Y-132805790D01*
X99274285Y-132758171D01*
X99083809Y-132710552D01*
X98940952Y-132710552D01*
X98750476Y-132758171D01*
X98655238Y-132805790D01*
X98560000Y-132901028D01*
X98512380Y-133043886D01*
X98512380Y-133139124D01*
X98560000Y-133281981D01*
X98607619Y-133329600D01*
X98512380Y-134186743D02*
X98512380Y-133996267D01*
X98560000Y-133901028D01*
X98607619Y-133853409D01*
X98750476Y-133758171D01*
X98940952Y-133710552D01*
X99321904Y-133710552D01*
X99417142Y-133758171D01*
X99464761Y-133805790D01*
X99512380Y-133901028D01*
X99512380Y-134091505D01*
X99464761Y-134186743D01*
X99417142Y-134234362D01*
X99321904Y-134281981D01*
X99083809Y-134281981D01*
X98988571Y-134234362D01*
X98940952Y-134186743D01*
X98893333Y-134091505D01*
X98893333Y-133901028D01*
X98940952Y-133805790D01*
X98988571Y-133758171D01*
X99083809Y-133710552D01*
X94106904Y-53014880D02*
X94106904Y-53824404D01*
X94059285Y-53919642D01*
X94011666Y-53967261D01*
X93916428Y-54014880D01*
X93725952Y-54014880D01*
X93630714Y-53967261D01*
X93583095Y-53919642D01*
X93535476Y-53824404D01*
X93535476Y-53014880D01*
X92630714Y-53014880D02*
X92821190Y-53014880D01*
X92916428Y-53062500D01*
X92964047Y-53110119D01*
X93059285Y-53252976D01*
X93106904Y-53443452D01*
X93106904Y-53824404D01*
X93059285Y-53919642D01*
X93011666Y-53967261D01*
X92916428Y-54014880D01*
X92725952Y-54014880D01*
X92630714Y-53967261D01*
X92583095Y-53919642D01*
X92535476Y-53824404D01*
X92535476Y-53586309D01*
X92583095Y-53491071D01*
X92630714Y-53443452D01*
X92725952Y-53395833D01*
X92916428Y-53395833D01*
X93011666Y-53443452D01*
X93059285Y-53491071D01*
X93106904Y-53586309D01*
X92527380Y-132928609D02*
X92051190Y-132595276D01*
X92527380Y-132357180D02*
X91527380Y-132357180D01*
X91527380Y-132738133D01*
X91575000Y-132833371D01*
X91622619Y-132880990D01*
X91717857Y-132928609D01*
X91860714Y-132928609D01*
X91955952Y-132880990D01*
X92003571Y-132833371D01*
X92051190Y-132738133D01*
X92051190Y-132357180D01*
X92527380Y-133880990D02*
X92527380Y-133309561D01*
X92527380Y-133595276D02*
X91527380Y-133595276D01*
X91670238Y-133500037D01*
X91765476Y-133404799D01*
X91813095Y-133309561D01*
X103809166Y-89067380D02*
X104142500Y-88591190D01*
X104380595Y-89067380D02*
X104380595Y-88067380D01*
X103999642Y-88067380D01*
X103904404Y-88115000D01*
X103856785Y-88162619D01*
X103809166Y-88257857D01*
X103809166Y-88400714D01*
X103856785Y-88495952D01*
X103904404Y-88543571D01*
X103999642Y-88591190D01*
X104380595Y-88591190D01*
X103428214Y-88162619D02*
X103380595Y-88115000D01*
X103285357Y-88067380D01*
X103047261Y-88067380D01*
X102952023Y-88115000D01*
X102904404Y-88162619D01*
X102856785Y-88257857D01*
X102856785Y-88353095D01*
X102904404Y-88495952D01*
X103475833Y-89067380D01*
X102856785Y-89067380D01*
X112728333Y-53049380D02*
X112728333Y-53763666D01*
X112775952Y-53906523D01*
X112871190Y-54001761D01*
X113014047Y-54049380D01*
X113109285Y-54049380D01*
X111823571Y-53049380D02*
X112014047Y-53049380D01*
X112109285Y-53097000D01*
X112156904Y-53144619D01*
X112252142Y-53287476D01*
X112299761Y-53477952D01*
X112299761Y-53858904D01*
X112252142Y-53954142D01*
X112204523Y-54001761D01*
X112109285Y-54049380D01*
X111918809Y-54049380D01*
X111823571Y-54001761D01*
X111775952Y-53954142D01*
X111728333Y-53858904D01*
X111728333Y-53620809D01*
X111775952Y-53525571D01*
X111823571Y-53477952D01*
X111918809Y-53430333D01*
X112109285Y-53430333D01*
X112204523Y-53477952D01*
X112252142Y-53525571D01*
X112299761Y-53620809D01*
X106141666Y-74017142D02*
X106189285Y-74064761D01*
X106332142Y-74112380D01*
X106427380Y-74112380D01*
X106570238Y-74064761D01*
X106665476Y-73969523D01*
X106713095Y-73874285D01*
X106760714Y-73683809D01*
X106760714Y-73540952D01*
X106713095Y-73350476D01*
X106665476Y-73255238D01*
X106570238Y-73160000D01*
X106427380Y-73112380D01*
X106332142Y-73112380D01*
X106189285Y-73160000D01*
X106141666Y-73207619D01*
X105808333Y-73112380D02*
X105141666Y-73112380D01*
X105570238Y-74112380D01*
X85851904Y-76990803D02*
X85851904Y-77800327D01*
X85804285Y-77895565D01*
X85756666Y-77943184D01*
X85661428Y-77990803D01*
X85470952Y-77990803D01*
X85375714Y-77943184D01*
X85328095Y-77895565D01*
X85280476Y-77800327D01*
X85280476Y-76990803D01*
X84375714Y-77324137D02*
X84375714Y-77990803D01*
X84613809Y-76943184D02*
X84851904Y-77657470D01*
X84232857Y-77657470D01*
X103715433Y-82747142D02*
X103763052Y-82794761D01*
X103905909Y-82842380D01*
X104001147Y-82842380D01*
X104144005Y-82794761D01*
X104239243Y-82699523D01*
X104286862Y-82604285D01*
X104334481Y-82413809D01*
X104334481Y-82270952D01*
X104286862Y-82080476D01*
X104239243Y-81985238D01*
X104144005Y-81890000D01*
X104001147Y-81842380D01*
X103905909Y-81842380D01*
X103763052Y-81890000D01*
X103715433Y-81937619D01*
X103144005Y-82270952D02*
X103239243Y-82223333D01*
X103286862Y-82175714D01*
X103334481Y-82080476D01*
X103334481Y-82032857D01*
X103286862Y-81937619D01*
X103239243Y-81890000D01*
X103144005Y-81842380D01*
X102953528Y-81842380D01*
X102858290Y-81890000D01*
X102810671Y-81937619D01*
X102763052Y-82032857D01*
X102763052Y-82080476D01*
X102810671Y-82175714D01*
X102858290Y-82223333D01*
X102953528Y-82270952D01*
X103144005Y-82270952D01*
X103239243Y-82318571D01*
X103286862Y-82366190D01*
X103334481Y-82461428D01*
X103334481Y-82651904D01*
X103286862Y-82747142D01*
X103239243Y-82794761D01*
X103144005Y-82842380D01*
X102953528Y-82842380D01*
X102858290Y-82794761D01*
X102810671Y-82747142D01*
X102763052Y-82651904D01*
X102763052Y-82461428D01*
X102810671Y-82366190D01*
X102858290Y-82318571D01*
X102953528Y-82270952D01*
X96853333Y-121797380D02*
X96853333Y-122511666D01*
X96900952Y-122654523D01*
X96996190Y-122749761D01*
X97139047Y-122797380D01*
X97234285Y-122797380D01*
X96424761Y-121892619D02*
X96377142Y-121845000D01*
X96281904Y-121797380D01*
X96043809Y-121797380D01*
X95948571Y-121845000D01*
X95900952Y-121892619D01*
X95853333Y-121987857D01*
X95853333Y-122083095D01*
X95900952Y-122225952D01*
X96472380Y-122797380D01*
X95853333Y-122797380D01*
X100854166Y-50757380D02*
X101187500Y-50281190D01*
X101425595Y-50757380D02*
X101425595Y-49757380D01*
X101044642Y-49757380D01*
X100949404Y-49805000D01*
X100901785Y-49852619D01*
X100854166Y-49947857D01*
X100854166Y-50090714D01*
X100901785Y-50185952D01*
X100949404Y-50233571D01*
X101044642Y-50281190D01*
X101425595Y-50281190D01*
X99949404Y-49757380D02*
X100425595Y-49757380D01*
X100473214Y-50233571D01*
X100425595Y-50185952D01*
X100330357Y-50138333D01*
X100092261Y-50138333D01*
X99997023Y-50185952D01*
X99949404Y-50233571D01*
X99901785Y-50328809D01*
X99901785Y-50566904D01*
X99949404Y-50662142D01*
X99997023Y-50709761D01*
X100092261Y-50757380D01*
X100330357Y-50757380D01*
X100425595Y-50709761D01*
X100473214Y-50662142D01*
X75263333Y-73112380D02*
X75263333Y-73826666D01*
X75310952Y-73969523D01*
X75406190Y-74064761D01*
X75549047Y-74112380D01*
X75644285Y-74112380D01*
X74882380Y-73112380D02*
X74263333Y-73112380D01*
X74596666Y-73493333D01*
X74453809Y-73493333D01*
X74358571Y-73540952D01*
X74310952Y-73588571D01*
X74263333Y-73683809D01*
X74263333Y-73921904D01*
X74310952Y-74017142D01*
X74358571Y-74064761D01*
X74453809Y-74112380D01*
X74739523Y-74112380D01*
X74834761Y-74064761D01*
X74882380Y-74017142D01*
X105576666Y-53507380D02*
X105910000Y-53031190D01*
X106148095Y-53507380D02*
X106148095Y-52507380D01*
X105767142Y-52507380D01*
X105671904Y-52555000D01*
X105624285Y-52602619D01*
X105576666Y-52697857D01*
X105576666Y-52840714D01*
X105624285Y-52935952D01*
X105671904Y-52983571D01*
X105767142Y-53031190D01*
X106148095Y-53031190D01*
X104719523Y-52840714D02*
X104719523Y-53507380D01*
X104957619Y-52459761D02*
X105195714Y-53174047D01*
X104576666Y-53174047D01*
X89827380Y-48093333D02*
X89351190Y-47760000D01*
X89827380Y-47521904D02*
X88827380Y-47521904D01*
X88827380Y-47902857D01*
X88875000Y-47998095D01*
X88922619Y-48045714D01*
X89017857Y-48093333D01*
X89160714Y-48093333D01*
X89255952Y-48045714D01*
X89303571Y-47998095D01*
X89351190Y-47902857D01*
X89351190Y-47521904D01*
X88827380Y-48426666D02*
X88827380Y-49045714D01*
X89208333Y-48712380D01*
X89208333Y-48855238D01*
X89255952Y-48950476D01*
X89303571Y-48998095D01*
X89398809Y-49045714D01*
X89636904Y-49045714D01*
X89732142Y-48998095D01*
X89779761Y-48950476D01*
X89827380Y-48855238D01*
X89827380Y-48569523D01*
X89779761Y-48474285D01*
X89732142Y-48426666D01*
D13*
X111445000Y-72070000D02*
X113345000Y-72070000D01*
X111445000Y-70170000D02*
X111445000Y-72070000D01*
X113345000Y-70170000D02*
X111445000Y-70170000D01*
X113345000Y-72070000D02*
X113345000Y-70170000D01*
X75880000Y-56195000D02*
X75880000Y-54295000D01*
X75880000Y-54295000D02*
X73980000Y-54295000D01*
X73980000Y-56195000D02*
X75880000Y-56195000D01*
X73980000Y-54295000D02*
X73980000Y-56195000D01*
X96010000Y-133203733D02*
X96010000Y-133496267D01*
X97030000Y-133203733D02*
X97030000Y-133496267D01*
D10*
X112395000Y-56602500D02*
X74295000Y-56602500D01*
X74295000Y-56602500D02*
X74295000Y-69302500D01*
X74295000Y-69302500D02*
X112395000Y-69302500D01*
X112395000Y-69302500D02*
X112395000Y-56602500D01*
D13*
X94387500Y-133095276D02*
X94387500Y-133604724D01*
X93342500Y-133095276D02*
X93342500Y-133604724D01*
X103387776Y-86662500D02*
X103897224Y-86662500D01*
X103387776Y-87707500D02*
X103897224Y-87707500D01*
X113345000Y-56195000D02*
X113345000Y-54295000D01*
X113345000Y-54295000D02*
X111445000Y-54295000D01*
X111445000Y-54295000D02*
X111445000Y-56195000D01*
X111445000Y-56195000D02*
X113345000Y-56195000D01*
X104921267Y-70750000D02*
X104628733Y-70750000D01*
X104921267Y-71770000D02*
X104628733Y-71770000D01*
D10*
X90570000Y-85658423D02*
G75*
G03*
X90570000Y-85658423I-6750000J0D01*
G01*
D13*
X103695034Y-83310000D02*
X103402500Y-83310000D01*
X103695034Y-84330000D02*
X103402500Y-84330000D01*
X93920000Y-119255000D02*
X93920000Y-118685000D01*
X99120000Y-121345000D02*
X99120000Y-120775000D01*
X93920000Y-118685000D02*
X99120000Y-118685000D01*
X93920000Y-121345000D02*
X99120000Y-121345000D01*
X92480000Y-120775000D02*
X93920000Y-120775000D01*
X99120000Y-119255000D02*
X99120000Y-118685000D01*
X93920000Y-121345000D02*
X93920000Y-120775000D01*
X100942224Y-52257500D02*
X100432776Y-52257500D01*
X100942224Y-51212500D02*
X100432776Y-51212500D01*
X75880000Y-70170000D02*
X73980000Y-70170000D01*
X75880000Y-72070000D02*
X75880000Y-70170000D01*
X73980000Y-70170000D02*
X73980000Y-72070000D01*
X73980000Y-72070000D02*
X75880000Y-72070000D01*
X105155276Y-51102500D02*
X105664724Y-51102500D01*
X105155276Y-52147500D02*
X105664724Y-52147500D01*
X90282500Y-48005276D02*
X90282500Y-48514724D01*
X91327500Y-48005276D02*
X91327500Y-48514724D01*
M02*
