M48
INCH,TZ
T1C0.0157
T2C0.0236
T3C0.0300
T4C0.0354
T5C0.0394
T6C0.0512
T7C0.0787
T8C0.1063
%
G90
G05
T1
X29500Y-19500
X29500Y-21000
X29500Y-22500
X29500Y-24000
X29500Y-25600
X29500Y-27200
X29500Y-29250
X29500Y-31200
X29500Y-32800
X29500Y-34400
X29500Y-36000
X29500Y-37600
X29500Y-39200
X29500Y-40800
X29500Y-42400
X29500Y-44000
X29500Y-45600
X29500Y-47250
X30500Y-23000
X31250Y-40250
X31250Y-42250
X31250Y-44250
X31250Y-52000
X31500Y-23750
X31500Y-25750
X31500Y-27250
X31500Y-29000
X31750Y-19500
X31750Y-22000
X31750Y-36000
X32000Y-52000
X32000Y-52750
X32500Y-31500
X32750Y-37000
X32750Y-43250
X32750Y-49250
X33000Y-33250
X33000Y-34750
X33000Y-39500
X33000Y-41000
X33000Y-48000
X33250Y-19500
X33250Y-22000
X33250Y-25250
X33250Y-27250
X33500Y-28500
X33500Y-36000
X33500Y-43000
X33750Y-26250
X33750Y-47250
X34000Y-42500
X34198Y-27750
X34250Y-19500
X34250Y-21000
X34500Y-29500
X34500Y-31250
X34500Y-35500
X34500Y-36500
X34500Y-42000
X34500Y-51750
X34600Y-17500
X34600Y-18400
X34750Y-25000
X34750Y-26500
X34800Y-54000
X34860Y-41500
X35000Y-47000
X35000Y-47750
X35000Y-48750
X35000Y-53000
X35250Y-19000
X35250Y-46000
X35500Y-21500
X35500Y-45000
X35500Y-51750
X35600Y-23400
X35750Y-17500
X35785Y-39250
X36000Y-22500
X36000Y-25000
X36000Y-39750
X36400Y-54000
X36500Y-22000
X36500Y-28500
X36500Y-32000
X36750Y-24000
X36750Y-41250
X36750Y-42250
X36750Y-44500
X36750Y-48750
X37000Y-20000
X37000Y-23000
X37000Y-27000
X37000Y-28000
X37000Y-31250
X37000Y-50000
X37250Y-24750
X37250Y-45000
X37500Y-22000
X37500Y-24000
X37500Y-28750
X37500Y-33500
X37500Y-34000
X37500Y-36000
X37500Y-36500
X37750Y-26750
X37750Y-27750
X37750Y-48750
X38000Y-23000
X38000Y-24750
X38000Y-34500
X38000Y-37250
X38000Y-38500
X38000Y-49500
X38000Y-54000
X38250Y-22000
X38500Y-42750
X38500Y-48250
X39000Y-35500
X39000Y-37250
X39000Y-38500
X39000Y-50000
X39500Y-43750
X39500Y-53000
X39600Y-54000
X39750Y-25500
X39750Y-26500
X39750Y-34500
X40000Y-32500
X40000Y-49250
X40250Y-23000
X40250Y-29000
X40400Y-21750
X40500Y-25500
X40500Y-44750
X40750Y-19750
X41000Y-29000
X41000Y-35500
X41000Y-48500
X41000Y-50000
X41000Y-51500
X41000Y-52750
X41200Y-54000
X41250Y-24250
X41250Y-25000
X41500Y-21750
X41500Y-35000
X41750Y-29000
X41750Y-31500
X41750Y-32250
X42000Y-27000
X42000Y-28064
X42250Y-32750
X42500Y-21750
X42750Y-22750
X42750Y-37250
X42750Y-40250
X42750Y-43250
X42750Y-46250
X42750Y-48250
X42750Y-50000
X42750Y-52000
X43250Y-28000
X43250Y-29250
X43250Y-35250
X43500Y-33000
X43500Y-51500
X44250Y-19500
X44250Y-20750
X44250Y-22500
X44250Y-29250
X44250Y-30500
X44250Y-35250
X44250Y-36800
X44250Y-38400
X44250Y-40000
X44250Y-41600
X44250Y-43200
X44250Y-44800
X44250Y-46400
X44250Y-48000
X44250Y-49600
X44250Y-51200
T2
X33250Y-52399
X33250Y-53187
T3
X40500Y-37250
X40500Y-38250
X40500Y-39250
X40500Y-40250
X40500Y-41250
T4
X31500Y-32724
X31500Y-33724
X31500Y-34724
X32000Y-36784
X32000Y-37784
X32000Y-38784
X32000Y-39784
X32000Y-40784
X32000Y-41784
X32000Y-42784
X32000Y-43784
X32000Y-44784
X32000Y-45784
X32000Y-46784
X32000Y-47784
X32000Y-48784
X32000Y-49784
X32000Y-50784
X34000Y-51034
X34500Y-32724
X34500Y-33724
X34500Y-34724
X35000Y-51034
X36000Y-51034
X36250Y-45784
X37000Y-51034
X37750Y-45784
X38000Y-51034
X38716Y-17747
X38716Y-18747
X39000Y-51034
X39716Y-17747
X40000Y-51034
X40716Y-17747
X40716Y-18747
X42000Y-36784
X42000Y-37784
X42000Y-38784
X42000Y-39784
X42000Y-40784
X42000Y-41784
X42000Y-42784
X42000Y-43784
X42000Y-44784
X42000Y-45784
X42000Y-46784
X42000Y-47784
X42000Y-48784
X42000Y-49784
X42000Y-50784
X43750Y-23284
X43750Y-24284
X43750Y-25284
X43750Y-26284
T5
X30750Y-48994
X30750Y-49994
X30750Y-50994
X43636Y-32114
X43636Y-33886
T6
X42652Y-31622
X42652Y-34378
T7
X37216Y-18247
X42216Y-18247
T8
X30000Y-18000
X30000Y-53500
X43750Y-18000
X43750Y-53500
T0
M30
