G04 #@! TF.GenerationSoftware,KiCad,Pcbnew,6.0.11+dfsg-1*
G04 #@! TF.CreationDate,2024-11-16T17:39:08+02:00*
G04 #@! TF.ProjectId,lora_tracker,6c6f7261-5f74-4726-9163-6b65722e6b69,rev?*
G04 #@! TF.SameCoordinates,Original*
G04 #@! TF.FileFunction,Soldermask,Top*
G04 #@! TF.FilePolarity,Negative*
%FSLAX46Y46*%
G04 Gerber Fmt 4.6, Leading zero omitted, Abs format (unit mm)*
G04 Created by KiCad (PCBNEW 6.0.11+dfsg-1) date 2024-11-16 17:39:08*
%MOMM*%
%LPD*%
G01*
G04 APERTURE LIST*
G04 Aperture macros list*
%AMRoundRect*
0 Rectangle with rounded corners*
0 $1 Rounding radius*
0 $2 $3 $4 $5 $6 $7 $8 $9 X,Y pos of 4 corners*
0 Add a 4 corners polygon primitive as box body*
4,1,4,$2,$3,$4,$5,$6,$7,$8,$9,$2,$3,0*
0 Add four circle primitives for the rounded corners*
1,1,$1+$1,$2,$3*
1,1,$1+$1,$4,$5*
1,1,$1+$1,$6,$7*
1,1,$1+$1,$8,$9*
0 Add four rect primitives between the rounded corners*
20,1,$1+$1,$2,$3,$4,$5,0*
20,1,$1+$1,$4,$5,$6,$7,0*
20,1,$1+$1,$6,$7,$8,$9,0*
20,1,$1+$1,$8,$9,$2,$3,0*%
G04 Aperture macros list end*
%ADD10RoundRect,0.051000X-0.800000X1.100000X-0.800000X-1.100000X0.800000X-1.100000X0.800000X1.100000X0*%
%ADD11RoundRect,0.288500X-0.237500X0.300000X-0.237500X-0.300000X0.237500X-0.300000X0.237500X0.300000X0*%
%ADD12RoundRect,0.051000X-1.000000X-0.750000X1.000000X-0.750000X1.000000X0.750000X-1.000000X0.750000X0*%
%ADD13RoundRect,0.288500X0.237500X-0.300000X0.237500X0.300000X-0.237500X0.300000X-0.237500X-0.300000X0*%
%ADD14RoundRect,0.101600X0.850000X1.250000X-0.850000X1.250000X-0.850000X-1.250000X0.850000X-1.250000X0*%
%ADD15RoundRect,0.051000X-0.600000X0.600000X-0.600000X-0.600000X0.600000X-0.600000X0.600000X0.600000X0*%
%ADD16C,1.302000*%
%ADD17C,2.302000*%
%ADD18C,1.802000*%
%ADD19C,1.626000*%
%ADD20RoundRect,0.051000X-1.250000X1.500000X-1.250000X-1.500000X1.250000X-1.500000X1.250000X1.500000X0*%
%ADD21RoundRect,0.288500X0.237500X-0.250000X0.237500X0.250000X-0.237500X0.250000X-0.237500X-0.250000X0*%
%ADD22RoundRect,0.051000X0.850000X0.850000X-0.850000X0.850000X-0.850000X-0.850000X0.850000X-0.850000X0*%
%ADD23O,1.802000X1.802000*%
%ADD24RoundRect,0.051000X0.635000X1.800000X-0.635000X1.800000X-0.635000X-1.800000X0.635000X-1.800000X0*%
%ADD25RoundRect,0.051000X0.675000X2.100000X-0.675000X2.100000X-0.675000X-2.100000X0.675000X-2.100000X0*%
%ADD26RoundRect,0.288500X0.300000X0.237500X-0.300000X0.237500X-0.300000X-0.237500X0.300000X-0.237500X0*%
%ADD27RoundRect,0.051000X1.270000X0.762000X-1.270000X0.762000X-1.270000X-0.762000X1.270000X-0.762000X0*%
G04 APERTURE END LIST*
D10*
X99060000Y-82955000D03*
X99060000Y-85955000D03*
D11*
X103545000Y-82157500D03*
X103545000Y-83882500D03*
D12*
X82424000Y-58405000D03*
X82424000Y-60405000D03*
X82424000Y-62405000D03*
X82424000Y-64405000D03*
X82424000Y-66405000D03*
X82424000Y-68405000D03*
X82424000Y-70405000D03*
X82424000Y-72405000D03*
X98424000Y-72405000D03*
X98424000Y-70405000D03*
X98424000Y-68405000D03*
X98424000Y-66405000D03*
X98424000Y-64405000D03*
X98424000Y-62405000D03*
X98424000Y-60405000D03*
X98424000Y-58405000D03*
D13*
X78740000Y-62230000D03*
X78740000Y-60505000D03*
D14*
X79868501Y-76770000D03*
X82408501Y-76770000D03*
X84948501Y-76770000D03*
X92548501Y-76770000D03*
X95088501Y-76770000D03*
X97628501Y-76770000D03*
X100168501Y-76770000D03*
X102708501Y-76770000D03*
X105248501Y-76770000D03*
X107788501Y-76770000D03*
X110328501Y-76770000D03*
X110328501Y-52770000D03*
X107788501Y-52770000D03*
X105248501Y-52770000D03*
X102708501Y-52770000D03*
X100168501Y-52770000D03*
X97628501Y-52770000D03*
X95088501Y-52770000D03*
X92548501Y-52770000D03*
X84948501Y-52770000D03*
X82408501Y-52770000D03*
X79868501Y-52770000D03*
D15*
X84455000Y-133094604D03*
D16*
X84455000Y-135094604D03*
D17*
X108335000Y-87320000D03*
X108335000Y-80320000D03*
D18*
X110835000Y-81570000D03*
X110835000Y-86070000D03*
D19*
X86360000Y-129627500D03*
X88900000Y-129627500D03*
X91440000Y-129627500D03*
X93980000Y-129627500D03*
X96520000Y-129627500D03*
X99060000Y-129627500D03*
X101600000Y-129627500D03*
X95885000Y-116292500D03*
X92075000Y-116292500D03*
D13*
X90805000Y-49122500D03*
X90805000Y-47397500D03*
D19*
X103417500Y-45077500D03*
X98337500Y-45077500D03*
X100877500Y-45077500D03*
D20*
X94527500Y-46347500D03*
X107227500Y-46347500D03*
D19*
X98337500Y-47617500D03*
X103417500Y-47617500D03*
D13*
X78105000Y-85317500D03*
X78105000Y-83592500D03*
X84855000Y-96685000D03*
X84855000Y-94960000D03*
D21*
X78740000Y-120292500D03*
X78740000Y-118467500D03*
D19*
X81280000Y-93432500D03*
X81280000Y-95972500D03*
X81280000Y-98512500D03*
X81280000Y-101052500D03*
X81280000Y-103592500D03*
X81280000Y-106132500D03*
X81280000Y-108672500D03*
X81280000Y-111212500D03*
X81280000Y-113752500D03*
X81280000Y-116292500D03*
X81280000Y-118832500D03*
X81280000Y-121372500D03*
X81280000Y-123912500D03*
X81280000Y-126452500D03*
X81280000Y-128992500D03*
X106680000Y-128992500D03*
X106680000Y-126452500D03*
X106680000Y-123912500D03*
X106680000Y-121372500D03*
X106680000Y-118832500D03*
X106680000Y-116292500D03*
X106680000Y-113752500D03*
X106680000Y-111212500D03*
X106680000Y-108672500D03*
X106680000Y-106132500D03*
X106680000Y-103592500D03*
X106680000Y-101052500D03*
X106680000Y-98512500D03*
X106680000Y-95972500D03*
X106680000Y-93432500D03*
D22*
X78105000Y-129525000D03*
D23*
X78105000Y-126985000D03*
X78105000Y-124445000D03*
D21*
X78740000Y-116482500D03*
X78740000Y-114657500D03*
D24*
X82550000Y-45737500D03*
D25*
X85375000Y-45937500D03*
X79725000Y-45937500D03*
D26*
X99922500Y-99695000D03*
X98197500Y-99695000D03*
D19*
X102870000Y-94615000D03*
X102870000Y-97155000D03*
X102870000Y-99695000D03*
X102870000Y-102235000D03*
X102870000Y-104775000D03*
D27*
X111125000Y-59142500D03*
X111125000Y-61682500D03*
X111125000Y-64222500D03*
X111125000Y-66762500D03*
D19*
X87630000Y-83118423D03*
X87630000Y-85658423D03*
X87630000Y-88198423D03*
X80010000Y-88198423D03*
X80010000Y-85658423D03*
X80010000Y-83118423D03*
M02*
