G04 #@! TF.GenerationSoftware,KiCad,Pcbnew,6.0.11+dfsg-1*
G04 #@! TF.CreationDate,2024-12-21T17:09:36+02:00*
G04 #@! TF.ProjectId,lora_tracker,6c6f7261-5f74-4726-9163-6b65722e6b69,rev?*
G04 #@! TF.SameCoordinates,Original*
G04 #@! TF.FileFunction,Legend,Top*
G04 #@! TF.FilePolarity,Positive*
%FSLAX46Y46*%
G04 Gerber Fmt 4.6, Leading zero omitted, Abs format (unit mm)*
G04 Created by KiCad (PCBNEW 6.0.11+dfsg-1) date 2024-12-21 17:09:36*
%MOMM*%
%LPD*%
G01*
G04 APERTURE LIST*
%ADD10C,0.250000*%
%ADD11C,0.150000*%
%ADD12C,0.120000*%
%ADD13C,0.127000*%
G04 APERTURE END LIST*
D10*
X75636428Y-128285714D02*
X75636428Y-127523809D01*
X76017380Y-127904761D02*
X75255476Y-127904761D01*
X75017380Y-126571428D02*
X75017380Y-127047619D01*
X75493571Y-127095238D01*
X75445952Y-127047619D01*
X75398333Y-126952380D01*
X75398333Y-126714285D01*
X75445952Y-126619047D01*
X75493571Y-126571428D01*
X75588809Y-126523809D01*
X75826904Y-126523809D01*
X75922142Y-126571428D01*
X75969761Y-126619047D01*
X76017380Y-126714285D01*
X76017380Y-126952380D01*
X75969761Y-127047619D01*
X75922142Y-127095238D01*
X75017380Y-126238095D02*
X76017380Y-125904761D01*
X75017380Y-125571428D01*
X75493571Y-123594761D02*
X75541190Y-123451904D01*
X75588809Y-123404285D01*
X75684047Y-123356666D01*
X75826904Y-123356666D01*
X75922142Y-123404285D01*
X75969761Y-123451904D01*
X76017380Y-123547142D01*
X76017380Y-123928095D01*
X75017380Y-123928095D01*
X75017380Y-123594761D01*
X75065000Y-123499523D01*
X75112619Y-123451904D01*
X75207857Y-123404285D01*
X75303095Y-123404285D01*
X75398333Y-123451904D01*
X75445952Y-123499523D01*
X75493571Y-123594761D01*
X75493571Y-123928095D01*
X75969761Y-122975714D02*
X76017380Y-122832857D01*
X76017380Y-122594761D01*
X75969761Y-122499523D01*
X75922142Y-122451904D01*
X75826904Y-122404285D01*
X75731666Y-122404285D01*
X75636428Y-122451904D01*
X75588809Y-122499523D01*
X75541190Y-122594761D01*
X75493571Y-122785238D01*
X75445952Y-122880476D01*
X75398333Y-122928095D01*
X75303095Y-122975714D01*
X75207857Y-122975714D01*
X75112619Y-122928095D01*
X75065000Y-122880476D01*
X75017380Y-122785238D01*
X75017380Y-122547142D01*
X75065000Y-122404285D01*
X75065000Y-131571904D02*
X75017380Y-131667142D01*
X75017380Y-131810000D01*
X75065000Y-131952857D01*
X75160238Y-132048095D01*
X75255476Y-132095714D01*
X75445952Y-132143333D01*
X75588809Y-132143333D01*
X75779285Y-132095714D01*
X75874523Y-132048095D01*
X75969761Y-131952857D01*
X76017380Y-131810000D01*
X76017380Y-131714761D01*
X75969761Y-131571904D01*
X75922142Y-131524285D01*
X75588809Y-131524285D01*
X75588809Y-131714761D01*
X76017380Y-131095714D02*
X75017380Y-131095714D01*
X76017380Y-130524285D01*
X75017380Y-130524285D01*
X76017380Y-130048095D02*
X75017380Y-130048095D01*
X75017380Y-129810000D01*
X75065000Y-129667142D01*
X75160238Y-129571904D01*
X75255476Y-129524285D01*
X75445952Y-129476666D01*
X75588809Y-129476666D01*
X75779285Y-129524285D01*
X75874523Y-129571904D01*
X75969761Y-129667142D01*
X76017380Y-129810000D01*
X76017380Y-130048095D01*
D11*
X102117142Y-84621666D02*
X102164761Y-84669285D01*
X102212380Y-84812142D01*
X102212380Y-84907380D01*
X102164761Y-85050238D01*
X102069523Y-85145476D01*
X101974285Y-85193095D01*
X101783809Y-85240714D01*
X101640952Y-85240714D01*
X101450476Y-85193095D01*
X101355238Y-85145476D01*
X101260000Y-85050238D01*
X101212380Y-84907380D01*
X101212380Y-84812142D01*
X101260000Y-84669285D01*
X101307619Y-84621666D01*
X101307619Y-84240714D02*
X101260000Y-84193095D01*
X101212380Y-84097857D01*
X101212380Y-83859761D01*
X101260000Y-83764523D01*
X101307619Y-83716904D01*
X101402857Y-83669285D01*
X101498095Y-83669285D01*
X101640952Y-83716904D01*
X102212380Y-84288333D01*
X102212380Y-83669285D01*
X105332142Y-83186666D02*
X105379761Y-83234285D01*
X105427380Y-83377142D01*
X105427380Y-83472380D01*
X105379761Y-83615238D01*
X105284523Y-83710476D01*
X105189285Y-83758095D01*
X104998809Y-83805714D01*
X104855952Y-83805714D01*
X104665476Y-83758095D01*
X104570238Y-83710476D01*
X104475000Y-83615238D01*
X104427380Y-83472380D01*
X104427380Y-83377142D01*
X104475000Y-83234285D01*
X104522619Y-83186666D01*
X105427380Y-82234285D02*
X105427380Y-82805714D01*
X105427380Y-82520000D02*
X104427380Y-82520000D01*
X104570238Y-82615238D01*
X104665476Y-82710476D01*
X104713095Y-82805714D01*
X89662095Y-63857380D02*
X89662095Y-64666904D01*
X89709714Y-64762142D01*
X89757333Y-64809761D01*
X89852571Y-64857380D01*
X90043047Y-64857380D01*
X90138285Y-64809761D01*
X90185904Y-64762142D01*
X90233523Y-64666904D01*
X90233523Y-63857380D01*
X90614476Y-63857380D02*
X91233523Y-63857380D01*
X90900190Y-64238333D01*
X91043047Y-64238333D01*
X91138285Y-64285952D01*
X91185904Y-64333571D01*
X91233523Y-64428809D01*
X91233523Y-64666904D01*
X91185904Y-64762142D01*
X91138285Y-64809761D01*
X91043047Y-64857380D01*
X90757333Y-64857380D01*
X90662095Y-64809761D01*
X90614476Y-64762142D01*
X77667142Y-61534166D02*
X77714761Y-61581785D01*
X77762380Y-61724642D01*
X77762380Y-61819880D01*
X77714761Y-61962738D01*
X77619523Y-62057976D01*
X77524285Y-62105595D01*
X77333809Y-62153214D01*
X77190952Y-62153214D01*
X77000476Y-62105595D01*
X76905238Y-62057976D01*
X76810000Y-61962738D01*
X76762380Y-61819880D01*
X76762380Y-61724642D01*
X76810000Y-61581785D01*
X76857619Y-61534166D01*
X76762380Y-61200833D02*
X76762380Y-60581785D01*
X77143333Y-60915119D01*
X77143333Y-60772261D01*
X77190952Y-60677023D01*
X77238571Y-60629404D01*
X77333809Y-60581785D01*
X77571904Y-60581785D01*
X77667142Y-60629404D01*
X77714761Y-60677023D01*
X77762380Y-60772261D01*
X77762380Y-61057976D01*
X77714761Y-61153214D01*
X77667142Y-61200833D01*
X88062142Y-134261270D02*
X88109761Y-134308889D01*
X88157380Y-134451746D01*
X88157380Y-134546984D01*
X88109761Y-134689842D01*
X88014523Y-134785080D01*
X87919285Y-134832699D01*
X87728809Y-134880318D01*
X87585952Y-134880318D01*
X87395476Y-134832699D01*
X87300238Y-134785080D01*
X87205000Y-134689842D01*
X87157380Y-134546984D01*
X87157380Y-134451746D01*
X87205000Y-134308889D01*
X87252619Y-134261270D01*
X88157380Y-133785080D02*
X88157380Y-133594604D01*
X88109761Y-133499365D01*
X88062142Y-133451746D01*
X87919285Y-133356508D01*
X87728809Y-133308889D01*
X87347857Y-133308889D01*
X87252619Y-133356508D01*
X87205000Y-133404127D01*
X87157380Y-133499365D01*
X87157380Y-133689842D01*
X87205000Y-133785080D01*
X87252619Y-133832699D01*
X87347857Y-133880318D01*
X87585952Y-133880318D01*
X87681190Y-133832699D01*
X87728809Y-133785080D01*
X87776428Y-133689842D01*
X87776428Y-133499365D01*
X87728809Y-133404127D01*
X87681190Y-133356508D01*
X87585952Y-133308889D01*
X108739761Y-85153333D02*
X108787380Y-85010476D01*
X108787380Y-84772380D01*
X108739761Y-84677142D01*
X108692142Y-84629523D01*
X108596904Y-84581904D01*
X108501666Y-84581904D01*
X108406428Y-84629523D01*
X108358809Y-84677142D01*
X108311190Y-84772380D01*
X108263571Y-84962857D01*
X108215952Y-85058095D01*
X108168333Y-85105714D01*
X108073095Y-85153333D01*
X107977857Y-85153333D01*
X107882619Y-85105714D01*
X107835000Y-85058095D01*
X107787380Y-84962857D01*
X107787380Y-84724761D01*
X107835000Y-84581904D01*
X107787380Y-84248571D02*
X108787380Y-84010476D01*
X108073095Y-83820000D01*
X108787380Y-83629523D01*
X107787380Y-83391428D01*
X108787380Y-82486666D02*
X108787380Y-83058095D01*
X108787380Y-82772380D02*
X107787380Y-82772380D01*
X107930238Y-82867619D01*
X108025476Y-82962857D01*
X108073095Y-83058095D01*
X85598095Y-110577380D02*
X85598095Y-111386904D01*
X85645714Y-111482142D01*
X85693333Y-111529761D01*
X85788571Y-111577380D01*
X85979047Y-111577380D01*
X86074285Y-111529761D01*
X86121904Y-111482142D01*
X86169523Y-111386904D01*
X86169523Y-110577380D01*
X87121904Y-110577380D02*
X86645714Y-110577380D01*
X86598095Y-111053571D01*
X86645714Y-111005952D01*
X86740952Y-110958333D01*
X86979047Y-110958333D01*
X87074285Y-111005952D01*
X87121904Y-111053571D01*
X87169523Y-111148809D01*
X87169523Y-111386904D01*
X87121904Y-111482142D01*
X87074285Y-111529761D01*
X86979047Y-111577380D01*
X86740952Y-111577380D01*
X86645714Y-111529761D01*
X86598095Y-111482142D01*
X89892142Y-46521666D02*
X89939761Y-46569285D01*
X89987380Y-46712142D01*
X89987380Y-46807380D01*
X89939761Y-46950238D01*
X89844523Y-47045476D01*
X89749285Y-47093095D01*
X89558809Y-47140714D01*
X89415952Y-47140714D01*
X89225476Y-47093095D01*
X89130238Y-47045476D01*
X89035000Y-46950238D01*
X88987380Y-46807380D01*
X88987380Y-46712142D01*
X89035000Y-46569285D01*
X89082619Y-46521666D01*
X88987380Y-45616904D02*
X88987380Y-46093095D01*
X89463571Y-46140714D01*
X89415952Y-46093095D01*
X89368333Y-45997857D01*
X89368333Y-45759761D01*
X89415952Y-45664523D01*
X89463571Y-45616904D01*
X89558809Y-45569285D01*
X89796904Y-45569285D01*
X89892142Y-45616904D01*
X89939761Y-45664523D01*
X89987380Y-45759761D01*
X89987380Y-45997857D01*
X89939761Y-46093095D01*
X89892142Y-46140714D01*
X109362738Y-47561666D02*
X109315119Y-47704523D01*
X109315119Y-47942619D01*
X109362738Y-48037857D01*
X109410357Y-48085476D01*
X109505595Y-48133095D01*
X109600833Y-48133095D01*
X109696071Y-48085476D01*
X109743690Y-48037857D01*
X109791309Y-47942619D01*
X109838928Y-47752142D01*
X109886547Y-47656904D01*
X109934166Y-47609285D01*
X110029404Y-47561666D01*
X110124642Y-47561666D01*
X110219880Y-47609285D01*
X110267500Y-47656904D01*
X110315119Y-47752142D01*
X110315119Y-47990238D01*
X110267500Y-48133095D01*
X110315119Y-48466428D02*
X109315119Y-48704523D01*
X110029404Y-48895000D01*
X109315119Y-49085476D01*
X110315119Y-49323571D01*
X110219880Y-49656904D02*
X110267500Y-49704523D01*
X110315119Y-49799761D01*
X110315119Y-50037857D01*
X110267500Y-50133095D01*
X110219880Y-50180714D01*
X110124642Y-50228333D01*
X110029404Y-50228333D01*
X109886547Y-50180714D01*
X109315119Y-49609285D01*
X109315119Y-50228333D01*
X78462142Y-87796666D02*
X78509761Y-87844285D01*
X78557380Y-87987142D01*
X78557380Y-88082380D01*
X78509761Y-88225238D01*
X78414523Y-88320476D01*
X78319285Y-88368095D01*
X78128809Y-88415714D01*
X77985952Y-88415714D01*
X77795476Y-88368095D01*
X77700238Y-88320476D01*
X77605000Y-88225238D01*
X77557380Y-88082380D01*
X77557380Y-87987142D01*
X77605000Y-87844285D01*
X77652619Y-87796666D01*
X77890714Y-86939523D02*
X78557380Y-86939523D01*
X77509761Y-87177619D02*
X78224047Y-87415714D01*
X78224047Y-86796666D01*
X83782142Y-96465357D02*
X83829761Y-96512976D01*
X83877380Y-96655833D01*
X83877380Y-96751071D01*
X83829761Y-96893928D01*
X83734523Y-96989166D01*
X83639285Y-97036785D01*
X83448809Y-97084404D01*
X83305952Y-97084404D01*
X83115476Y-97036785D01*
X83020238Y-96989166D01*
X82925000Y-96893928D01*
X82877380Y-96751071D01*
X82877380Y-96655833D01*
X82925000Y-96512976D01*
X82972619Y-96465357D01*
X83877380Y-95512976D02*
X83877380Y-96084404D01*
X83877380Y-95798690D02*
X82877380Y-95798690D01*
X83020238Y-95893928D01*
X83115476Y-95989166D01*
X83163095Y-96084404D01*
X82877380Y-94893928D02*
X82877380Y-94798690D01*
X82925000Y-94703452D01*
X82972619Y-94655833D01*
X83067857Y-94608214D01*
X83258333Y-94560595D01*
X83496428Y-94560595D01*
X83686904Y-94608214D01*
X83782142Y-94655833D01*
X83829761Y-94703452D01*
X83877380Y-94798690D01*
X83877380Y-94893928D01*
X83829761Y-94989166D01*
X83782142Y-95036785D01*
X83686904Y-95084404D01*
X83496428Y-95132023D01*
X83258333Y-95132023D01*
X83067857Y-95084404D01*
X82972619Y-95036785D01*
X82925000Y-94989166D01*
X82877380Y-94893928D01*
X77762380Y-119546666D02*
X77286190Y-119880000D01*
X77762380Y-120118095D02*
X76762380Y-120118095D01*
X76762380Y-119737142D01*
X76810000Y-119641904D01*
X76857619Y-119594285D01*
X76952857Y-119546666D01*
X77095714Y-119546666D01*
X77190952Y-119594285D01*
X77238571Y-119641904D01*
X77286190Y-119737142D01*
X77286190Y-120118095D01*
X76762380Y-118689523D02*
X76762380Y-118880000D01*
X76810000Y-118975238D01*
X76857619Y-119022857D01*
X77000476Y-119118095D01*
X77190952Y-119165714D01*
X77571904Y-119165714D01*
X77667142Y-119118095D01*
X77714761Y-119070476D01*
X77762380Y-118975238D01*
X77762380Y-118784761D01*
X77714761Y-118689523D01*
X77667142Y-118641904D01*
X77571904Y-118594285D01*
X77333809Y-118594285D01*
X77238571Y-118641904D01*
X77190952Y-118689523D01*
X77143333Y-118784761D01*
X77143333Y-118975238D01*
X77190952Y-119070476D01*
X77238571Y-119118095D01*
X77333809Y-119165714D01*
X83058095Y-89622380D02*
X83058095Y-90431904D01*
X83105714Y-90527142D01*
X83153333Y-90574761D01*
X83248571Y-90622380D01*
X83439047Y-90622380D01*
X83534285Y-90574761D01*
X83581904Y-90527142D01*
X83629523Y-90431904D01*
X83629523Y-89622380D01*
X84629523Y-90622380D02*
X84058095Y-90622380D01*
X84343809Y-90622380D02*
X84343809Y-89622380D01*
X84248571Y-89765238D01*
X84153333Y-89860476D01*
X84058095Y-89908095D01*
X77771666Y-131307380D02*
X77771666Y-132021666D01*
X77724047Y-132164523D01*
X77628809Y-132259761D01*
X77485952Y-132307380D01*
X77390714Y-132307380D01*
X78676428Y-131640714D02*
X78676428Y-132307380D01*
X78438333Y-131259761D02*
X78200238Y-131974047D01*
X78819285Y-131974047D01*
X77762380Y-115736666D02*
X77286190Y-116070000D01*
X77762380Y-116308095D02*
X76762380Y-116308095D01*
X76762380Y-115927142D01*
X76810000Y-115831904D01*
X76857619Y-115784285D01*
X76952857Y-115736666D01*
X77095714Y-115736666D01*
X77190952Y-115784285D01*
X77238571Y-115831904D01*
X77286190Y-115927142D01*
X77286190Y-116308095D01*
X76762380Y-115403333D02*
X76762380Y-114736666D01*
X77762380Y-115165238D01*
X79676666Y-48982380D02*
X79676666Y-49696666D01*
X79629047Y-49839523D01*
X79533809Y-49934761D01*
X79390952Y-49982380D01*
X79295714Y-49982380D01*
X80676666Y-49982380D02*
X80105238Y-49982380D01*
X80390952Y-49982380D02*
X80390952Y-48982380D01*
X80295714Y-49125238D01*
X80200476Y-49220476D01*
X80105238Y-49268095D01*
X98417142Y-101482142D02*
X98369523Y-101529761D01*
X98226666Y-101577380D01*
X98131428Y-101577380D01*
X97988571Y-101529761D01*
X97893333Y-101434523D01*
X97845714Y-101339285D01*
X97798095Y-101148809D01*
X97798095Y-101005952D01*
X97845714Y-100815476D01*
X97893333Y-100720238D01*
X97988571Y-100625000D01*
X98131428Y-100577380D01*
X98226666Y-100577380D01*
X98369523Y-100625000D01*
X98417142Y-100672619D01*
X99369523Y-101577380D02*
X98798095Y-101577380D01*
X99083809Y-101577380D02*
X99083809Y-100577380D01*
X98988571Y-100720238D01*
X98893333Y-100815476D01*
X98798095Y-100863095D01*
X100321904Y-101577380D02*
X99750476Y-101577380D01*
X100036190Y-101577380D02*
X100036190Y-100577380D01*
X99940952Y-100720238D01*
X99845714Y-100815476D01*
X99750476Y-100863095D01*
X88138095Y-92162380D02*
X88138095Y-92971904D01*
X88185714Y-93067142D01*
X88233333Y-93114761D01*
X88328571Y-93162380D01*
X88519047Y-93162380D01*
X88614285Y-93114761D01*
X88661904Y-93067142D01*
X88709523Y-92971904D01*
X88709523Y-92162380D01*
X89090476Y-92162380D02*
X89757142Y-92162380D01*
X89328571Y-93162380D01*
D12*
X100820000Y-83584437D02*
X100820000Y-86215000D01*
X100820000Y-86215000D02*
X100120000Y-86215000D01*
X100120000Y-82884437D02*
X100820000Y-83584437D01*
X100682500Y-82267500D02*
X100307500Y-82267500D01*
X97300000Y-86215000D02*
X98000000Y-86215000D01*
X100495000Y-82080000D02*
X100495000Y-82455000D01*
X97300000Y-83584437D02*
X97300000Y-86215000D01*
X98000000Y-82884437D02*
X97300000Y-83584437D01*
X104055000Y-82873733D02*
X104055000Y-83166267D01*
X103035000Y-82873733D02*
X103035000Y-83166267D01*
D11*
X98674000Y-74155000D02*
X98674000Y-73405000D01*
X82174000Y-74155000D02*
X98674000Y-74155000D01*
X82174000Y-57405000D02*
X82174000Y-56655000D01*
X82174000Y-73405000D02*
X82174000Y-74155000D01*
X82174000Y-56655000D02*
X98674000Y-56655000D01*
X98674000Y-56655000D02*
X98674000Y-57405000D01*
D12*
X78230000Y-61513767D02*
X78230000Y-61221233D01*
X79250000Y-61513767D02*
X79250000Y-61221233D01*
D13*
X80958501Y-52770000D02*
X81358501Y-52770000D01*
X106258501Y-76770000D02*
X106658501Y-76770000D01*
X74358501Y-52770000D02*
X78558501Y-52770000D01*
X83458501Y-76770000D02*
X83858501Y-76770000D01*
X80958501Y-76770000D02*
X81358501Y-76770000D01*
X93558501Y-52770000D02*
X93958501Y-52770000D01*
X96158501Y-76770000D02*
X96558501Y-76770000D01*
X74358501Y-76770000D02*
X74358501Y-52770000D01*
X93558501Y-76770000D02*
X93958501Y-76770000D01*
X112958501Y-52770000D02*
X111658501Y-52770000D01*
X86258501Y-76770000D02*
X91258501Y-76770000D01*
X98658501Y-52770000D02*
X99058501Y-52770000D01*
X112958501Y-76770000D02*
X112958501Y-52770000D01*
X83458501Y-52770000D02*
X83858501Y-52770000D01*
X86258501Y-52770000D02*
X91258501Y-52770000D01*
X101258501Y-76770000D02*
X101658501Y-76770000D01*
X103758501Y-52770000D02*
X104158501Y-52770000D01*
X98658501Y-76770000D02*
X99058501Y-76770000D01*
X108858501Y-76770000D02*
X109258501Y-76770000D01*
X96158501Y-52770000D02*
X96558501Y-52770000D01*
X101258501Y-52770000D02*
X101658501Y-52770000D01*
X103758501Y-76770000D02*
X104158501Y-76770000D01*
X78558501Y-76770000D02*
X74358501Y-76770000D01*
X111658501Y-76770000D02*
X112958501Y-76770000D01*
X106358501Y-52770000D02*
X106758501Y-52770000D01*
X108858501Y-52770000D02*
X109258501Y-52770000D01*
D12*
X83615000Y-135295604D02*
X82747000Y-135295604D01*
X83615000Y-135255604D02*
X82720000Y-135255604D01*
X86460000Y-134654604D02*
X85295000Y-134654604D01*
X85851000Y-135655604D02*
X85295000Y-135655604D01*
X86263000Y-135135604D02*
X85295000Y-135135604D01*
X86190000Y-135255604D02*
X85295000Y-135255604D01*
X86344000Y-134975604D02*
X85295000Y-134975604D01*
X86489000Y-134534604D02*
X85295000Y-134534604D01*
X83615000Y-134774604D02*
X82487000Y-134774604D01*
X86480000Y-134574604D02*
X85295000Y-134574604D01*
X83615000Y-135095604D02*
X82625000Y-135095604D01*
X83615000Y-135135604D02*
X82647000Y-135135604D01*
X86526000Y-134294604D02*
X85295000Y-134294604D01*
X83615000Y-134815604D02*
X82501000Y-134815604D01*
X83615000Y-135375604D02*
X82805000Y-135375604D01*
X83615000Y-135735604D02*
X83151000Y-135735604D01*
X83615000Y-135335604D02*
X82775000Y-135335604D01*
X86007000Y-135495604D02*
X85295000Y-135495604D01*
X85655000Y-135815604D02*
X85295000Y-135815604D01*
X85933000Y-135575604D02*
X85295000Y-135575604D01*
X86534000Y-134174604D02*
X82376000Y-134174604D01*
X86163000Y-135295604D02*
X85295000Y-135295604D01*
X83615000Y-135015604D02*
X82585000Y-135015604D01*
X86522000Y-134334604D02*
X85295000Y-134334604D01*
X86517000Y-134374604D02*
X85295000Y-134374604D01*
X83615000Y-134694604D02*
X82461000Y-134694604D01*
X85971000Y-135535604D02*
X85295000Y-135535604D01*
X86135000Y-135335604D02*
X85295000Y-135335604D01*
X86362000Y-134935604D02*
X85295000Y-134935604D01*
X86423000Y-134774604D02*
X85295000Y-134774604D01*
X83615000Y-134574604D02*
X82430000Y-134574604D01*
X85650000Y-131824803D02*
X85650000Y-132224803D01*
X86240000Y-135175604D02*
X85295000Y-135175604D01*
X86409000Y-134815604D02*
X85295000Y-134815604D01*
X83615000Y-134654604D02*
X82450000Y-134654604D01*
X85223000Y-136055604D02*
X83687000Y-136055604D01*
X85468000Y-135935604D02*
X83442000Y-135935604D01*
X83615000Y-135655604D02*
X83059000Y-135655604D01*
X83615000Y-135535604D02*
X82939000Y-135535604D01*
X83615000Y-134534604D02*
X82421000Y-134534604D01*
X83615000Y-134734604D02*
X82473000Y-134734604D01*
X83615000Y-135815604D02*
X83255000Y-135815604D01*
X86437000Y-134734604D02*
X85295000Y-134734604D01*
X83615000Y-134614604D02*
X82439000Y-134614604D01*
X86042000Y-135455604D02*
X85295000Y-135455604D01*
X86532000Y-134214604D02*
X82378000Y-134214604D01*
X83615000Y-135695604D02*
X83104000Y-135695604D01*
X85597000Y-135855604D02*
X85295000Y-135855604D01*
X86105000Y-135375604D02*
X85295000Y-135375604D01*
X85806000Y-135695604D02*
X85295000Y-135695604D01*
X85535000Y-135895604D02*
X85295000Y-135895604D01*
X86511000Y-134414604D02*
X85295000Y-134414604D01*
X83615000Y-135575604D02*
X82977000Y-135575604D01*
X85119000Y-136095604D02*
X83791000Y-136095604D01*
X86529000Y-134254604D02*
X82381000Y-134254604D01*
X86285000Y-135095604D02*
X85295000Y-135095604D01*
X84825000Y-136175604D02*
X84085000Y-136175604D01*
X85395000Y-135975604D02*
X83515000Y-135975604D01*
X86535000Y-134134604D02*
X82375000Y-134134604D01*
X86449000Y-134694604D02*
X85295000Y-134694604D01*
X86325000Y-135015604D02*
X85295000Y-135015604D01*
X85759000Y-135735604D02*
X85295000Y-135735604D01*
X86497000Y-134494604D02*
X85295000Y-134494604D01*
X86306000Y-135055604D02*
X85295000Y-135055604D01*
X83615000Y-134414604D02*
X82399000Y-134414604D01*
X83615000Y-134294604D02*
X82384000Y-134294604D01*
X83615000Y-134454604D02*
X82405000Y-134454604D01*
X83615000Y-134494604D02*
X82413000Y-134494604D01*
X83615000Y-135495604D02*
X82903000Y-135495604D01*
X86215000Y-135215604D02*
X85295000Y-135215604D01*
X86395000Y-134855604D02*
X85295000Y-134855604D01*
X83615000Y-134935604D02*
X82548000Y-134935604D01*
X83615000Y-134334604D02*
X82388000Y-134334604D01*
X86505000Y-134454604D02*
X85295000Y-134454604D01*
X84992000Y-136135604D02*
X83918000Y-136135604D01*
X83615000Y-134895604D02*
X82531000Y-134895604D01*
X83615000Y-135415604D02*
X82836000Y-135415604D01*
X86471000Y-134614604D02*
X85295000Y-134614604D01*
X83615000Y-135055604D02*
X82604000Y-135055604D01*
X86074000Y-135415604D02*
X85295000Y-135415604D01*
X86379000Y-134895604D02*
X85295000Y-134895604D01*
X83615000Y-134975604D02*
X82566000Y-134975604D01*
X83615000Y-135775604D02*
X83201000Y-135775604D01*
X85709000Y-135775604D02*
X85295000Y-135775604D01*
X85314000Y-136015604D02*
X83596000Y-136015604D01*
X85850000Y-132024803D02*
X85450000Y-132024803D01*
X83615000Y-135855604D02*
X83313000Y-135855604D01*
X83615000Y-135615604D02*
X83017000Y-135615604D01*
X83615000Y-135455604D02*
X82868000Y-135455604D01*
X83615000Y-134855604D02*
X82515000Y-134855604D01*
X83615000Y-135175604D02*
X82670000Y-135175604D01*
X83615000Y-135215604D02*
X82695000Y-135215604D01*
X85893000Y-135615604D02*
X85295000Y-135615604D01*
X83615000Y-135895604D02*
X83375000Y-135895604D01*
X83615000Y-134374604D02*
X82393000Y-134374604D01*
X86535000Y-134094604D02*
X82375000Y-134094604D01*
X86575000Y-134094604D02*
G75*
G03*
X86575000Y-134094604I-2120000J0D01*
G01*
X107015000Y-87690000D02*
X106715000Y-87690000D01*
X106715000Y-87690000D02*
X106715000Y-86800000D01*
X106715000Y-86800000D02*
X107065000Y-86800000D01*
X109265000Y-81330000D02*
X109265000Y-86310000D01*
X113505000Y-79950000D02*
X109655000Y-79950000D01*
X113505000Y-87690000D02*
X113505000Y-79950000D01*
X106715000Y-80840000D02*
X107065000Y-80840000D01*
X109655000Y-87690000D02*
X113505000Y-87690000D01*
X106715000Y-80840000D02*
X106715000Y-79950000D01*
X107015000Y-79950000D02*
X106715000Y-79950000D01*
D11*
X85090000Y-130897500D02*
X102870000Y-130897500D01*
X102870000Y-130897500D02*
X102870000Y-111847500D01*
X102870000Y-111847500D02*
X85090000Y-111847500D01*
X85090000Y-111847500D02*
X85090000Y-130897500D01*
D12*
X90295000Y-48406267D02*
X90295000Y-48113733D01*
X91315000Y-48406267D02*
X91315000Y-48113733D01*
X77595000Y-84601267D02*
X77595000Y-84308733D01*
X78615000Y-84601267D02*
X78615000Y-84308733D01*
X84345000Y-95968767D02*
X84345000Y-95676233D01*
X85365000Y-95968767D02*
X85365000Y-95676233D01*
X78217500Y-119634724D02*
X78217500Y-119125276D01*
X79262500Y-119634724D02*
X79262500Y-119125276D01*
D11*
X105410000Y-90892500D02*
X105410000Y-131532500D01*
X102870000Y-90892500D02*
X105410000Y-90892500D01*
X82550000Y-131532500D02*
X105410000Y-131532500D01*
X102870000Y-90892500D02*
X82550000Y-90892500D01*
X82550000Y-90892500D02*
X82550000Y-131532500D01*
D12*
X76775000Y-128255000D02*
X76775000Y-123115000D01*
X79435000Y-128255000D02*
X76775000Y-128255000D01*
X79435000Y-123115000D02*
X76775000Y-123115000D01*
X79435000Y-129525000D02*
X79435000Y-130855000D01*
X79435000Y-130855000D02*
X78105000Y-130855000D01*
X79435000Y-128255000D02*
X79435000Y-123115000D01*
X79262500Y-115824724D02*
X79262500Y-115315276D01*
X78217500Y-115824724D02*
X78217500Y-115315276D01*
X82800000Y-48697500D02*
X82550000Y-48197500D01*
X82300000Y-48697500D02*
X82800000Y-48697500D01*
X81710000Y-47647500D02*
X80600000Y-47647500D01*
X82550000Y-48197500D02*
X82300000Y-48697500D01*
X84500000Y-43937500D02*
X83390000Y-43937500D01*
X81710000Y-43937500D02*
X80600000Y-43937500D01*
X84500000Y-47647500D02*
X83390000Y-47647500D01*
X99206267Y-99185000D02*
X98913733Y-99185000D01*
X99206267Y-100205000D02*
X98913733Y-100205000D01*
D11*
X87630000Y-93345000D02*
X104140000Y-93345000D01*
X104140000Y-93345000D02*
X104140000Y-106045000D01*
X104140000Y-106045000D02*
X87630000Y-106045000D01*
X87630000Y-106045000D02*
X87630000Y-93345000D01*
M02*
